PathFileType	4	(X/Y/Z)	D:\TRACE\spot_10-12-23\spot_arm_body_motion_3_5-platform.trc
DataRate	CameraRate	NumFrames	NumMarkers	Units	OrigDataRate	OrigDataStartFrame	OrigNumFrames
100.00	100.00	      30	5	mm	100.00	3501	      7000
Frame#	Time	Left_Front			Right_Front			Left_Aft			Right_Aft			Post			
		X1	Y1	Z1	X2	Y2	Z2	X3	Y3	Z3	X4	Y4	Z4	X5	Y5	Z5	

3501	35.000	-754.15515	34.72610	-634.18036	818.52863	39.40644	-627.44745	-671.10938	-14.65020	502.77881	746.27295	-13.48725	588.69128	30.46674	785.66168	-920.87555	
3502	35.010	-754.16772	34.42462	-634.30396	818.48749	39.21618	-627.51123	-671.08228	-14.58461	502.75412	746.14642	-13.06652	588.92889	29.26253	785.27655	-920.46844	
3503	35.020	-754.17139	34.15137	-634.36707	818.47021	38.99616	-627.51270	-671.09106	-14.50190	502.72644	746.20081	-13.15658	588.61176	28.84065	784.96698	-920.89307	
3504	35.030	-754.19958	33.99723	-634.44440	818.43591	38.82650	-627.53601	-671.09540	-14.35328	502.75021	746.21606	-12.99870	588.56421	28.77169	784.69330	-921.33301	
3505	35.040	-754.22223	33.89104	-634.48730	818.37262	38.62117	-627.52710	-671.05420	-14.24477	502.69095	746.19659	-12.85026	588.48639	28.58408	784.32318	-921.82098	
3506	35.050	-754.18939	33.68388	-634.48022	818.47449	38.39256	-627.57660	-671.07257	-14.04865	502.69391	746.23572	-12.74208	588.42383	28.69387	783.87134	-922.14703	
3507	35.060	-754.19403	33.34812	-634.45789	818.61951	38.25688	-627.42920	-671.03046	-13.86016	502.69125	746.27673	-12.50992	588.44055	28.77963	783.62195	-922.64154	
3508	35.070	-754.26251	33.10473	-634.45782	818.64783	38.02797	-627.58386	-670.90765	-13.86277	502.54413	746.25012	-12.25961	588.39142	28.92487	783.27930	-923.16022	
3509	35.080	-754.33942	32.88202	-634.52332	818.59686	37.77704	-627.77612	-670.75684	-13.79085	502.64270	746.19775	-12.10648	588.32080	28.89246	782.99518	-923.51917	
3510	35.090	-754.37097	32.75996	-634.57721	818.66199	37.52022	-627.74445	-670.75885	-13.70029	502.48169	746.16309	-11.97654	588.24207	28.93118	782.82947	-923.86145	
3511	35.100	-754.35712	32.51052	-634.75513	818.64789	37.35591	-627.78864	-670.92395	-12.98994	502.56311	746.14954	-11.73265	588.22760	28.66278	782.58844	-924.19409	
3512	35.110	-754.27972	32.15902	-634.83148	818.58502	37.09284	-627.88434	-671.02789	-12.69997	502.56973	746.12659	-11.56423	588.20740	28.56445	782.17303	-924.35144	
3513	35.120	-754.28705	31.89954	-634.91034	818.65393	36.92908	-627.81879	-671.05695	-12.61917	502.48715	746.18524	-11.33989	588.21582	28.52418	781.71057	-924.52313	
3514	35.130	-754.32330	31.72247	-634.96350	818.36536	36.49720	-628.09937	-671.19940	-12.55120	502.35007	746.15021	-11.07483	588.21252	28.40974	781.34918	-924.64471	
3515	35.140	-754.36060	31.53725	-635.06519	818.26105	36.28399	-628.11322	-671.26770	-12.38065	502.26364	746.13245	-10.89848	588.11804	28.32607	780.99542	-924.88965	
3516	35.150	-754.35675	31.35128	-635.12067	818.27875	35.94603	-628.19061	-671.30414	-12.20324	502.15656	746.00952	-10.60777	588.12738	28.45041	780.75958	-924.95435	
3517	35.160	-754.45831	31.01132	-635.16132	818.16278	35.65720	-628.18127	-671.31543	-12.05637	502.04593	746.06183	-10.36727	588.02478	28.57769	780.28833	-925.38385	
3518	35.170	-754.49628	30.57750	-635.21069	818.14795	35.37753	-628.28198	-671.23285	-12.05118	502.07513	746.10919	-10.07599	587.90125	28.60263	779.75519	-925.75262	
3519	35.180	-754.46973	30.20270	-635.35370	818.17993	35.08983	-628.39374	-671.19141	-11.88513	502.00223	746.11896	-9.85087	587.81842	28.70636	779.30994	-926.05414	
3520	35.190	-754.45831	29.93000	-635.42780	818.26483	34.76601	-628.43793	-671.14545	-11.72701	502.02731	746.03345	-9.72966	587.72290	28.58474	778.82184	-926.62708	
3521	35.200	-754.44617	29.65626	-635.49591	818.22656	34.46943	-628.56177	-671.00519	-11.79841	501.81799	746.00995	-9.62219	587.64044	28.62815	778.57581	-927.18146	
3522	35.210	-754.45630	29.44173	-635.60004	818.20935	34.25359	-628.64862	-671.12677	-11.30085	501.74860	745.97662	-9.37206	587.58795	28.40175	778.18518	-928.02338	
3523	35.220	-754.46265	29.12483	-635.66968	818.30774	33.94528	-628.72821	-671.22028	-11.05505	501.66309	745.98315	-9.09209	587.56555	28.40306	777.68323	-928.59338	
3524	35.230	-754.45093	28.87575	-635.78772	818.21820	33.70790	-628.86572	-671.22888	-10.66188	501.41696	746.00031	-8.85927	587.50867	28.41809	777.20496	-929.13721	
3525	35.240	-754.40460	28.61856	-635.91968	818.16156	33.48817	-629.01105	-671.30823	-10.46884	501.35812	745.98425	-8.57372	587.42511	28.57051	776.82623	-929.67780	
3526	35.250	-754.40100	28.70561	-636.03320	818.02734	33.07360	-629.14386	-671.27954	-10.21602	501.18185	745.86853	-8.30550	587.36420	28.73976	776.36517	-930.07373	
3527	35.260	-754.43225	28.59486	-636.07330	817.95386	32.79699	-629.22516	-671.34552	-10.04917	501.11517	745.92133	-8.01683	587.36572	28.63639	775.88806	-930.41852	
3528	35.270	-754.50098	27.72328	-636.11096	817.97394	32.26999	-629.27240	-671.32922	-9.62440	501.27222	745.95428	-7.60596	587.28168	28.44069	775.48804	-930.69824	
3529	35.280	-754.48438	27.26705	-636.20587	817.97632	31.90815	-629.32385	-671.25861	-9.45324	501.05148	745.91443	-7.37893	587.26093	28.44483	775.08252	-930.87207	
3530	35.290	-754.55695	27.12997	-636.31940	817.94159	31.95011	-629.42987	-671.42834	-9.43918	501.17319	745.85370	-7.18264	587.26685	28.49916	774.72107	-931.22217	
